<mxfile host="app.diagrams.net" agent="Mozilla/5.0 (Windows NT 10.0; Win64; x64) AppleWebKit/537.36 (KHTML, like Gecko) Chrome/139.0.0.0 Safari/537.36 Edg/139.0.0.0" version="28.1.2">
  <diagram name="Pagina-1" id="CljGI2WKdtYJfpk_Dj_d">
    <mxGraphModel dx="1034" dy="578" grid="1" gridSize="10" guides="1" tooltips="1" connect="1" arrows="1" fold="1" page="1" pageScale="1" pageWidth="827" pageHeight="1169" math="0" shadow="0">
      <root>
        <mxCell id="0" />
        <mxCell id="1" parent="0" />
        <mxCell id="QycouhiWzr5LMVy6jgrO-28" style="edgeStyle=orthogonalEdgeStyle;rounded=0;orthogonalLoop=1;jettySize=auto;html=1;exitX=0;exitY=0;exitDx=85;exitDy=40;exitPerimeter=0;entryX=0.5;entryY=0;entryDx=0;entryDy=0;" parent="1" source="QycouhiWzr5LMVy6jgrO-29" target="Br7WrSXJs1bkP-itnR2I-3" edge="1">
          <mxGeometry relative="1" as="geometry">
            <mxPoint x="440" y="250" as="targetPoint" />
          </mxGeometry>
        </mxCell>
        <mxCell id="QycouhiWzr5LMVy6jgrO-29" value="A1 - View Therapeutic Plan" style="html=1;shape=mxgraph.infographic.ribbonSimple;notch1=20;notch2=0;align=center;verticalAlign=middle;fontSize=12;fontStyle=0;fillColor=#f8cecc;flipH=0;spacingRight=0;spacingLeft=14;whiteSpace=wrap;strokeColor=#b85450;" parent="1" vertex="1">
          <mxGeometry x="355" y="180" width="170" height="40" as="geometry" />
        </mxCell>
        <mxCell id="QycouhiWzr5LMVy6jgrO-30" value="&amp;lt;&amp;lt;complexity&amp;gt;&amp;gt;&lt;div&gt;low&lt;/div&gt;" style="shape=note;size=15;whiteSpace=wrap;html=1;verticalAlign=middle;fillColor=#dae8fc;strokeColor=#6c8ebf;" parent="1" vertex="1">
          <mxGeometry x="480" y="80" width="100" height="60" as="geometry" />
        </mxCell>
        <mxCell id="QycouhiWzr5LMVy6jgrO-31" value="&amp;lt;&amp;lt;frequency&amp;gt;&amp;gt;&lt;div&gt;&lt;div&gt;nPatient * 1 / day&lt;/div&gt;&lt;/div&gt;" style="shape=note;size=15;whiteSpace=wrap;html=1;verticalAlign=middle;fillColor=#d5e8d4;strokeColor=#82b366;" parent="1" vertex="1">
          <mxGeometry x="300" y="80" width="100" height="60" as="geometry" />
        </mxCell>
        <mxCell id="QycouhiWzr5LMVy6jgrO-32" style="edgeStyle=orthogonalEdgeStyle;rounded=0;orthogonalLoop=1;jettySize=auto;html=1;exitX=0.5;exitY=1;exitDx=0;exitDy=0;entryX=0.5;entryY=0;entryDx=0;entryDy=0;" parent="1" source="QycouhiWzr5LMVy6jgrO-33" target="QycouhiWzr5LMVy6jgrO-35" edge="1">
          <mxGeometry relative="1" as="geometry" />
        </mxCell>
        <mxCell id="QycouhiWzr5LMVy6jgrO-33" value="A2 - Get Therapeutic Plan" style="rounded=1;whiteSpace=wrap;html=1;fillColor=#f8cecc;strokeColor=#b85450;" parent="1" vertex="1">
          <mxGeometry x="380" y="320" width="120" height="60" as="geometry" />
        </mxCell>
        <mxCell id="QycouhiWzr5LMVy6jgrO-34" value="" style="edgeStyle=orthogonalEdgeStyle;rounded=0;orthogonalLoop=1;jettySize=auto;html=1;" parent="1" source="QycouhiWzr5LMVy6jgrO-35" target="QycouhiWzr5LMVy6jgrO-41" edge="1">
          <mxGeometry relative="1" as="geometry" />
        </mxCell>
        <mxCell id="QycouhiWzr5LMVy6jgrO-35" value="A3 - Show Therapeutic Plan" style="rounded=1;whiteSpace=wrap;html=1;fillColor=#f8cecc;strokeColor=#b85450;" parent="1" vertex="1">
          <mxGeometry x="380" y="410" width="120" height="60" as="geometry" />
        </mxCell>
        <mxCell id="QycouhiWzr5LMVy6jgrO-36" style="edgeStyle=orthogonalEdgeStyle;rounded=0;orthogonalLoop=1;jettySize=auto;html=1;exitX=0.5;exitY=1;exitDx=0;exitDy=0;entryX=0.5;entryY=0;entryDx=0;entryDy=0;" parent="1" source="QycouhiWzr5LMVy6jgrO-37" target="QycouhiWzr5LMVy6jgrO-39" edge="1">
          <mxGeometry relative="1" as="geometry" />
        </mxCell>
        <mxCell id="QycouhiWzr5LMVy6jgrO-37" value="&amp;lt;&amp;lt;datastore&amp;gt;&amp;gt;&lt;div&gt;I2.1 Therapeutic Plan&lt;/div&gt;" style="rounded=0;whiteSpace=wrap;html=1;fillColor=#ffe6cc;strokeColor=#d79b00;" parent="1" vertex="1">
          <mxGeometry x="180" y="240" width="120" height="60" as="geometry" />
        </mxCell>
        <mxCell id="QycouhiWzr5LMVy6jgrO-38" style="edgeStyle=orthogonalEdgeStyle;rounded=0;orthogonalLoop=1;jettySize=auto;html=1;exitX=1;exitY=0.5;exitDx=0;exitDy=0;entryX=0;entryY=0.5;entryDx=0;entryDy=0;" parent="1" source="QycouhiWzr5LMVy6jgrO-39" target="QycouhiWzr5LMVy6jgrO-33" edge="1">
          <mxGeometry relative="1" as="geometry" />
        </mxCell>
        <mxCell id="QycouhiWzr5LMVy6jgrO-39" value="I2: Therapeutic Plan" style="rounded=0;whiteSpace=wrap;html=1;fillColor=#ffe6cc;strokeColor=#d79b00;" parent="1" vertex="1">
          <mxGeometry x="180" y="320" width="120" height="60" as="geometry" />
        </mxCell>
        <mxCell id="QycouhiWzr5LMVy6jgrO-40" value="" style="ellipse;fillColor=#f8cecc;html=1;strokeColor=#b85450;" parent="1" vertex="1">
          <mxGeometry x="425" y="120" width="30" height="30" as="geometry" />
        </mxCell>
        <mxCell id="QycouhiWzr5LMVy6jgrO-41" value="" style="shape=sumEllipse;perimeter=ellipsePerimeter;html=1;backgroundOutline=1;fillColor=#f8cecc;strokeColor=#b85450;" parent="1" vertex="1">
          <mxGeometry x="425" y="500" width="30" height="30" as="geometry" />
        </mxCell>
        <mxCell id="QycouhiWzr5LMVy6jgrO-42" style="edgeStyle=orthogonalEdgeStyle;rounded=0;orthogonalLoop=1;jettySize=auto;html=1;exitX=0.5;exitY=1;exitDx=0;exitDy=0;entryX=0;entryY=0;entryDx=85;entryDy=0;entryPerimeter=0;" parent="1" source="QycouhiWzr5LMVy6jgrO-40" target="QycouhiWzr5LMVy6jgrO-29" edge="1">
          <mxGeometry relative="1" as="geometry" />
        </mxCell>
        <mxCell id="QycouhiWzr5LMVy6jgrO-43" style="edgeStyle=orthogonalEdgeStyle;rounded=0;orthogonalLoop=1;jettySize=auto;html=1;exitX=0.5;exitY=1;exitDx=0;exitDy=0;exitPerimeter=0;entryX=0;entryY=0;entryDx=42.5;entryDy=0;entryPerimeter=0;dashed=1;endArrow=none;endFill=0;fillColor=#d5e8d4;strokeColor=#82b366;" parent="1" source="QycouhiWzr5LMVy6jgrO-31" target="QycouhiWzr5LMVy6jgrO-29" edge="1">
          <mxGeometry relative="1" as="geometry" />
        </mxCell>
        <mxCell id="Br7WrSXJs1bkP-itnR2I-2" value="" style="endArrow=none;dashed=1;html=1;dashPattern=1 3;strokeWidth=2;rounded=0;entryX=1;entryY=0.5;entryDx=0;entryDy=0;entryPerimeter=0;exitX=1;exitY=0.5;exitDx=0;exitDy=0;fillColor=#b0e3e6;strokeColor=#0e8088;" edge="1" parent="1" source="QycouhiWzr5LMVy6jgrO-35" target="QycouhiWzr5LMVy6jgrO-29">
          <mxGeometry width="50" height="50" relative="1" as="geometry">
            <mxPoint x="710" y="370" as="sourcePoint" />
            <mxPoint x="610" y="200" as="targetPoint" />
            <Array as="points">
              <mxPoint x="640" y="440" />
              <mxPoint x="640" y="200" />
            </Array>
          </mxGeometry>
        </mxCell>
        <mxCell id="Br7WrSXJs1bkP-itnR2I-1" value="&amp;lt;&amp;lt;delay&amp;gt;&amp;gt;&lt;div&gt;&lt;div&gt;30 minutes&lt;/div&gt;&lt;/div&gt;" style="shape=note;size=15;whiteSpace=wrap;html=1;verticalAlign=middle;fillColor=#b0e3e6;strokeColor=#0e8088;" vertex="1" parent="1">
          <mxGeometry x="580" y="210" width="100" height="60" as="geometry" />
        </mxCell>
        <mxCell id="Br7WrSXJs1bkP-itnR2I-5" style="edgeStyle=orthogonalEdgeStyle;rounded=0;orthogonalLoop=1;jettySize=auto;html=1;entryX=0.5;entryY=0;entryDx=0;entryDy=0;" edge="1" parent="1" source="Br7WrSXJs1bkP-itnR2I-3" target="QycouhiWzr5LMVy6jgrO-33">
          <mxGeometry relative="1" as="geometry" />
        </mxCell>
        <mxCell id="Br7WrSXJs1bkP-itnR2I-3" value="l1: Patient" style="rounded=0;whiteSpace=wrap;html=1;fillColor=#ffe6cc;strokeColor=#d79b00;" vertex="1" parent="1">
          <mxGeometry x="380" y="240" width="120" height="60" as="geometry" />
        </mxCell>
      </root>
    </mxGraphModel>
  </diagram>
</mxfile>
